<svg width="16" height="20" viewBox="0 0 16 20" fill="none" xmlns="http://www.w3.org/2000/svg">
<path d="M13.0961 12.8219C12.9335 13.9057 12.4276 14.9089 11.6526 15.6838C10.8776 16.4588 9.87448 16.9648 8.79062 17.1273H8.6875C8.51501 17.1261 8.3493 17.06 8.22326 16.9422C8.09722 16.8245 8.02005 16.6636 8.00707 16.4916C7.99409 16.3196 8.04624 16.149 8.15318 16.0136C8.26012 15.8783 8.41403 15.7881 8.58438 15.7609C9.37446 15.6325 10.1041 15.2588 10.6702 14.6928C11.2362 14.1268 11.6098 13.3971 11.7383 12.607C11.7478 12.5144 11.776 12.4247 11.8212 12.3434C11.8664 12.262 11.9277 12.1906 12.0013 12.1337C12.0749 12.0767 12.1593 12.0352 12.2494 12.0118C12.3395 11.9884 12.4334 11.9836 12.5254 11.9975C12.6175 12.0115 12.7057 12.0441 12.7848 12.0931C12.8639 12.1422 12.9322 12.2069 12.9855 12.2832C13.0389 12.3594 13.0762 12.4458 13.0952 12.5369C13.1142 12.628 13.1145 12.722 13.0961 12.8133V12.8219ZM15.9062 12.0313C15.9062 14.1281 15.0733 16.1391 13.5906 17.6218C12.1079 19.1045 10.0969 19.9375 8 19.9375C5.90313 19.9375 3.89215 19.1045 2.40944 17.6218C0.926727 16.1391 0.09375 14.1281 0.09375 12.0313C0.09375 10.0461 0.944531 7.76016 2.62031 5.2336C2.67057 5.15847 2.73515 5.094 2.81036 5.04386C2.88557 4.99372 2.96992 4.95891 3.05859 4.94141C3.23734 4.90705 3.42244 4.94407 3.57422 5.04453L6.34141 6.89219L8.99688 1.32344C9.04436 1.22399 9.11533 1.1376 9.20367 1.07172C9.292 1.00584 9.39505 0.962459 9.50391 0.945314C9.61199 0.926549 9.72299 0.93392 9.82764 0.96681C9.93229 0.9997 10.0276 1.05716 10.1055 1.13438C11.3687 2.39766 12.8211 3.93594 13.9383 5.72344C15.2617 7.82891 15.9062 9.89141 15.9062 12.0313ZM14.5312 12.0313C14.5312 8.37031 12.3484 5.43125 9.81328 2.80156L7.24375 8.19844C7.20257 8.28861 7.14189 8.36852 7.06611 8.43242C6.99032 8.49632 6.9013 8.54262 6.80547 8.56797C6.71147 8.59297 6.61331 8.59824 6.51718 8.58345C6.42104 8.56866 6.32901 8.53413 6.24687 8.48203L3.39375 6.57422C2.11328 8.63672 1.46875 10.4672 1.46875 12.0313C1.46875 13.7634 2.15686 15.4247 3.38171 16.6495C4.60656 17.8744 6.2678 18.5625 8 18.5625C9.73219 18.5625 11.3934 17.8744 12.6183 16.6495C13.8431 15.4247 14.5312 13.7634 14.5312 12.0313Z" fill="black"/>
</svg>
