<svg width="21" height="24" viewBox="0 0 21 24" fill="none" xmlns="http://www.w3.org/2000/svg">
<path d="M20.0137 10.4855L2.85214 0.833422C2.59895 0.69304 2.3087 0.622304 2.01095 0.628417C1.71321 0.63453 1.41861 0.717273 1.15716 0.868221C0.895715 1.01917 0.676757 1.23293 0.522592 1.48772C0.368426 1.74252 0.284561 2.02925 0.279538 2.31871L0.0576782 22.0071C0.058478 22.3369 0.161876 22.6539 0.354317 22.9166C0.546758 23.1792 0.819262 23.3753 1.13611 23.4791C1.45295 23.5829 1.79936 23.5895 2.12991 23.4981C2.46046 23.4068 2.75973 23.2216 2.98849 22.967L9.58437 15.4646L19.3796 13.5036C19.5725 13.4616 19.7584 13.3895 19.9301 13.29C20.1425 13.1673 20.3267 13.0018 20.4695 12.8053C20.6122 12.6087 20.7101 12.386 20.756 12.1531C20.8264 11.8263 20.7931 11.4912 20.6603 11.193C20.5276 10.8948 20.3019 10.6479 20.0137 10.4855ZM9.61232 13.8155L6.68373 8.74304C6.57733 8.55875 6.39785 8.42672 6.18477 8.37599C5.97169 8.32527 5.74247 8.36 5.54752 8.47255C5.35258 8.5851 5.20789 8.76625 5.14528 8.97614C5.08267 9.18604 5.10727 9.40749 5.21367 9.59178L8.14227 14.6643L1.73513 21.9419L1.95699 2.25356L19.1186 11.9056L9.61232 13.8155Z" fill="white"/>
</svg>
