<svg width="11" height="12" viewBox="0 0 11 12" fill="none" xmlns="http://www.w3.org/2000/svg">
<path fill-rule="evenodd" clip-rule="evenodd" d="M4.8405 0.0768347C5.10453 -0.0256116 5.39547 -0.0256116 5.6595 0.0768347L9.74283 1.66184C9.96526 1.74815 10.1569 1.90268 10.2922 2.10477C10.4275 2.30687 10.5 2.5469 10.5 2.79279V6.03104C10.5 7.04027 10.2285 8.02956 9.71596 8.88807C9.20339 9.74658 8.46998 10.4404 7.59792 10.8917L5.64142 11.9043C5.51989 11.9672 5.38588 12 5.25 12C5.11412 12 4.98011 11.9672 4.85858 11.9043L2.90208 10.8917C2.03002 10.4404 1.29661 9.74658 0.78404 8.88807C0.271466 8.02956 -2.10185e-05 7.04027 9.05205e-09 6.03104V2.79279C-2.95741e-05 2.5469 0.0724522 2.30687 0.207756 2.10477C0.34306 1.90268 0.534738 1.74815 0.757167 1.66184L4.8405 0.0768347Z" fill="#717171"/>
</svg>
