<svg width="25" height="19" viewBox="0 0 25 19" fill="none" xmlns="http://www.w3.org/2000/svg">
<path d="M0.125 18.5V15.35C0.125 14.7125 0.28925 14.1264 0.61775 13.5916C0.9455 13.0576 1.38125 12.65 1.925 12.3688C3.0875 11.7875 4.26875 11.3514 5.46875 11.0604C6.66875 10.7701 7.8875 10.625 9.125 10.625C10.3625 10.625 11.5813 10.7701 12.7813 11.0604C13.9813 11.3514 15.1625 11.7875 16.325 12.3688C16.8688 12.65 17.3045 13.0576 17.6323 13.5916C17.9608 14.1264 18.125 14.7125 18.125 15.35V18.5H0.125ZM20.375 18.5V15.125C20.375 14.3 20.1455 13.5076 19.6865 12.7479C19.2268 11.9889 18.575 11.3375 17.7313 10.7937C18.6875 10.9062 19.5875 11.0982 20.4313 11.3698C21.275 11.642 22.0625 11.975 22.7938 12.3688C23.4688 12.7438 23.9844 13.1607 24.3406 13.6198C24.6969 14.0795 24.875 14.5813 24.875 15.125V18.5H20.375ZM9.125 9.5C7.8875 9.5 6.82813 9.05937 5.94688 8.17812C5.06563 7.29687 4.625 6.2375 4.625 5C4.625 3.7625 5.06563 2.70313 5.94688 1.82188C6.82813 0.940625 7.8875 0.5 9.125 0.5C10.3625 0.5 11.4219 0.940625 12.3031 1.82188C13.1844 2.70313 13.625 3.7625 13.625 5C13.625 6.2375 13.1844 7.29687 12.3031 8.17812C11.4219 9.05937 10.3625 9.5 9.125 9.5ZM20.375 5C20.375 6.2375 19.9344 7.29687 19.0531 8.17812C18.1719 9.05937 17.1125 9.5 15.875 9.5C15.6688 9.5 15.4063 9.47675 15.0875 9.43025C14.7688 9.383 14.5063 9.33125 14.3 9.275C14.8063 8.675 15.1951 8.00937 15.4666 7.27812C15.7389 6.54687 15.875 5.7875 15.875 5C15.875 4.2125 15.7389 3.45312 15.4666 2.72187C15.1951 1.99062 14.8063 1.325 14.3 0.725C14.5625 0.63125 14.825 0.570125 15.0875 0.541625C15.35 0.513875 15.6125 0.5 15.875 0.5C17.1125 0.5 18.1719 0.940625 19.0531 1.82188C19.9344 2.70313 20.375 3.7625 20.375 5ZM2.375 16.25H15.875V15.35C15.875 15.1438 15.8236 14.9563 15.7209 14.7875C15.6174 14.6188 15.4813 14.4875 15.3125 14.3938C14.3 13.8875 13.2781 13.5076 12.2469 13.2541C11.2156 13.0014 10.175 12.875 9.125 12.875C8.075 12.875 7.03438 13.0014 6.00313 13.2541C4.97188 13.5076 3.95 13.8875 2.9375 14.3938C2.76875 14.4875 2.633 14.6188 2.53025 14.7875C2.42675 14.9563 2.375 15.1438 2.375 15.35V16.25ZM9.125 7.25C9.74375 7.25 10.2736 7.0295 10.7146 6.5885C11.1549 6.14825 11.375 5.61875 11.375 5C11.375 4.38125 11.1549 3.85175 10.7146 3.4115C10.2736 2.9705 9.74375 2.75 9.125 2.75C8.50625 2.75 7.97675 2.9705 7.5365 3.4115C7.0955 3.85175 6.875 4.38125 6.875 5C6.875 5.61875 7.0955 6.14825 7.5365 6.5885C7.97675 7.0295 8.50625 7.25 9.125 7.25Z" fill="#5A47EE"/>
</svg>
